<svg xmlns="http://www.w3.org/2000/svg" width="512" height="512" viewBox="0 0 512 512">
  <rect width="512" height="512" rx="64" fill="#059669"/>
  <path d="M256 96c-88.4 0-160 71.6-160 160s71.6 160 160 160 160-71.6 160-160S344.4 96 256 96zm0 280c-66.3 0-120-53.7-120-120s53.7-120 120-120 120 53.7 120 120-53.7 120-120 120z" fill="#ffffff" opacity="0.3"/>
  <path d="M256 160c-12.5 0-24.3 2.4-35.2 6.7 8.7 11.5 13.9 25.8 13.9 41.3 0 38.1-30.9 69-69 69-15.5 0-29.8-5.2-41.3-13.9-4.3 10.9-6.7 22.7-6.7 35.2 0 76.5 62.2 138.7 138.7 138.7S395.1 374.8 395.1 298.3 332.9 159.6 256.4 159.6c-.1 0-.3.4-.4.4z" fill="#ffffff"/>
  <path d="M256 200l20 60h63l-51 37 20 61-52-38-52 38 20-61-51-37h63z" fill="#059669"/>
</svg>
